#!OML:ASF I:\Actors\actors\Patient Classification 2\Patient 1\Session 1\actor1.ASF
:FULLY-SPECIFIED
:DEGREES
354
root -0.548172 18.692 5.93798 1.76708 3.28466 -2.58813
lowerback 15.6186 0.580034 4.13742
upperback -2.58135 1.83524 2.09023
thorax -11.6015 0.6739 -0.514621
lowerneck -7.76908 -3.77279 0.690697
upperneck 1.63418 -5.02284 -1.84001
head 1.76523 -2.54789 -0.887361
rclavicle 3.05631e-014 3.26007e-014
rhumerus 2.50301 8.40624 -28.6673
rradius 115.015
rwrist -70.6404
rhand 7.92865 -56.7553
rfingers 7.12502
rthumb 33.1592 -83.7217
lclavicle 3.05631e-014 3.26007e-014
lhumerus -48.4316 -0.484796 87.8035
lradius 50.8541
lwrist -0.207957
lhand -8.83994 -24.9097
lfingers 7.12502
lthumb 17.1005 4.35772
rfemur 0 0 0
rtibia 0
rfoot 0 0
rtoes 0
lfemur -8.85996 -1.77234 -11.4473
ltibia 26.6329
lfoot -19.9447 6.04333
ltoes -56.8186
355
root -0.547271 18.6896 5.94438 1.64311 3.6444 -2.56932
lowerback 15.5309 0.586708 4.07888
upperback -2.641 1.82637 2.0562
thorax -11.6179 0.671558 -0.515295
lowerneck -7.84096 -3.79847 0.668412
upperneck 1.98029 -5.04641 -1.95958
head 1.88884 -2.56387 -0.931204
rclavicle 6.95746e-016 -4.77083e-015
rhumerus 1.9735 8.32563 -29.0307
rradius 114.577
rwrist -70.154
rhand 8.34423 -56.9915
rfingers 7.12502
rthumb 33.5543 -83.8731
lclavicle 6.95746e-016 -4.77083e-015
lhumerus -48.5002 -0.219354 87.6335
lradius 50.711
lwrist -0.478478
lhand -8.8178 -24.9703
lfingers 7.12502
lthumb 17.1218 4.29523
rfemur 0 0 0
rtibia 0
rfoot 0 0
rtoes 0
lfemur -8.8048 -1.94038 -11.4622
ltibia 26.6703
lfoot -19.9042 5.8918
ltoes -56.904
356
root -0.54558 18.6869 5.95332 1.482 3.93814 -2.5393
lowerback 15.4268 0.619142 4.025
upperback -2.67012 1.84792 2.00017
thorax -11.5879 0.683467 -0.550124
lowerneck -7.99353 -3.83206 0.600322
upperneck 2.42202 -5.07836 -1.97938
head 2.06269 -2.58236 -0.940668
rclavicle -2.12948e-014 -1.27222e-014
rhumerus 1.40164 8.1829 -29.3621
rradius 114.148
rwrist -69.8191
rhand 8.47072 -57.3122
rfingers 7.12502
rthumb 33.6745 -84.1677
lclavicle -2.12948e-014 -1.27222e-014
lhumerus -48.5824 -0.0439879 87.4867
lradius 50.5909
lwrist -0.657033
lhand -8.87162 -24.9286
lfingers 7.12502
lthumb 17.07 4.34147
rfemur 0 0 0
rtibia 0
rfoot 0 0
rtoes 0
lfemur -8.68292 -2.13134 -11.5016
ltibia 26.7044
lfoot -19.9187 5.78062
ltoes -56.9154
357
root -0.542699 18.6844 5.96242 1.34473 4.20655 -2.5092
lowerback 15.2773 0.656119 3.98942
upperback -2.68475 1.87386 1.92616
thorax -11.5133 0.696497 -0.615202
lowerneck -8.11852 -3.84456 0.54353
upperneck 2.78955 -5.08636 -1.94742
head 2.20943 -2.58707 -0.93251
rclavicle -1.2101e-014 -3.61788e-014
rhumerus 0.727195 7.98211 -29.7118
rradius 113.866
rwrist -69.6044
rhand 8.57728 -57.6702
rfingers 7.12502
rthumb 33.7757 -84.5035
lclavicle -1.2101e-014 -3.61788e-014
lhumerus -48.6845 0.0361168 87.3281
lradius 50.5297
lwrist -0.719641
lhand -8.92762 -24.9181
lfingers 7.12502
lthumb 17.0161 4.35663
rfemur 0 0 0
rtibia 0
rfoot 0 0
rtoes 0
lfemur -8.58102 -2.24596 -11.5412
ltibia 26.7308
lfoot -19.9012 5.63958
ltoes -56.9233
358
root -0.539313 18.6821 5.97006 1.24316 4.5086 -2.49287
lowerback 15.0994 0.671646 3.95211
upperback -2.69551 1.87214 1.87807
thorax -11.4197 0.698159 -0.64342
lowerneck -8.15197 -3.83798 0.524757
upperneck 2.98626 -5.07055 -2.00395
head 2.28039 -2.58168 -0.951762
rclavicle -8.89561e-015 6.36111e-015
rhumerus 0.104162 7.74894 -30.0646
rradius 113.592
rwrist -69.4893
rhand 8.80732 -57.78
rfingers 7.12502
rthumb 33.9943 -84.5651
lclavicle -8.89561e-015 6.36111e-015
lhumerus -48.7572 0.183803 87.1521
lradius 50.3169
lwrist -0.550694
lhand -9.09593 -25.5474
lfingers 7.12502
lthumb 16.8541 3.74116
rfemur 0 0 0
rtibia 0
rfoot 0 0
rtoes 0
lfemur -8.52993 -2.34888 -11.5621
ltibia 26.753
lfoot -19.8529 5.46474
ltoes -56.9357
359
root -0.536082 18.68 5.97737 1.13944 4.80697 -2.46363
lowerback 14.861 0.67714 3.91822
upperback -2.66638 1.85118 1.81701
thorax -11.2456 0.691941 -0.681894
lowerneck -8.16579 -3.84938 0.496645
upperneck 3.09561 -5.07941 -2.04427
head 2.319 -2.58801 -0.962922
rclavicle 2.18663e-014 1.31198e-014
rhumerus -0.323748 7.53649 -30.3796
rradius 113.155
rwrist -69.2883
rhand 8.65349 -57.495
rfingers 7.12502
rthumb 33.8481 -84.3124
lclavicle 2.18663e-014 1.31198e-014
lhumerus -48.7332 0.518906 86.8552
lradius 49.7233
lwrist -0.156568
lhand -9.30416 -27.359
lfingers 7.12502
lthumb 16.6536 1.94654
rfemur 0 0 0
rtibia 0
rfoot 0 0
rtoes 0
lfemur -8.474 -2.44366 -11.5972
ltibia 26.7771
lfoot -19.8117 5.28446
ltoes -57.0137
360
root -0.532941 18.6775 5.9851 1.04199 5.05016 -2.4014
lowerback 14.4898 0.704279 3.84726
upperback -2.56577 1.83995 1.73679
thorax -10.9133 0.6958 -0.720072
lowerneck -8.18567 -3.88089 0.519903
upperneck 3.12356 -5.12054 -2.10071
head 2.32938 -2.61012 -0.987796
rclavicle 1.79403e-014 -2.38542e-014
rhumerus -0.75366 7.32472 -30.6938
rradius 112.715
rwrist -68.7045
rhand 8.07955 -56.971
rfingers 7.12502
rthumb 33.3027 -83.9069
lclavicle 1.79403e-014 -2.38542e-014
lhumerus -48.6185 0.792381 86.5962
lradius 49.5604
lwrist -0.332439
lhand -9.10969 -27.3233
lfingers 7.12502
lthumb 16.8409 1.96639
rfemur 0 0 0
rtibia 0
rfoot 0 0
rtoes 0
lfemur -8.40633 -2.4942 -11.6705
ltibia 26.8014
lfoot -19.7904 5.10485
ltoes -57.0667
361
root -0.52882 18.6738 5.99311 0.942839 5.2679 -2.36299
lowerback 14.2019 0.74637 3.7557
upperback -2.508 1.85739 1.70203
thorax -10.68 0.713863 -0.704952
lowerneck -8.23759 -3.90977 0.506536
upperneck 3.24553 -5.14981 -2.21936
head 2.37668 -2.62924 -1.02882
rclavicle -2.00276e-014 7.95139e-015
rhumerus -1.27614 7.14332 -31.0238
rradius 112.299
rwrist -68.1935
rhand 7.83258 -56.7474
rfingers 7.12502
rthumb 33.0678 -83.7333
lclavicle -2.00276e-014 7.95139e-015
lhumerus -48.5836 1.00368 86.4258
lradius 49.4568
lwrist -0.4585
lhand -8.98099 -27.2837
lfingers 7.12502
lthumb 16.9647 1.9954
rfemur 0 0 0
rtibia 0
rfoot 0 0
rtoes 0
lfemur -8.32663 -2.56996 -11.7237
ltibia 26.8223
lfoot -19.7748 4.95208
ltoes -56.991
362
root -0.524423 18.6702 6.0013 0.826035 5.47544 -2.35966
lowerback 14.0802 0.807548 3.71727
upperback -2.53564 1.92182 1.65429
thorax -10.6362 0.745857 -0.747592
lowerneck -8.22742 -3.94451 0.453298
upperneck 3.44994 -5.18596 -2.25351
head 2.44318 -2.64962 -1.03648
rclavicle -2.01269e-015 -7.95139e-015
rhumerus -1.87343 6.98142 -31.2996
rradius 111.906
rwrist -68.0603
rhand 7.87453 -57.078
rfingers 7.12502
rthumb 33.1077 -84.0554
lclavicle -2.01269e-015 -7.95139e-015
lhumerus -48.6798 1.09019 86.2919
lradius 49.4693
lwrist -0.367639
lhand -8.74926 -26.8102
lfingers 7.12502
lthumb 17.1878 2.44963
rfemur 0 0 0
rtibia 0
rfoot 0 0
rtoes 0
lfemur -8.22885 -2.66293 -11.7402
ltibia 26.8409
lfoot -19.7552 4.83132
ltoes -56.916
363
root -0.520061 18.667 6.00894 0.685075 5.66081 -2.36073
lowerback 14 0.878451 3.717
upperback -2.56219 2.00436 1.56838
thorax -10.6122 0.782246 -0.857824
lowerneck -8.22741 -3.98912 0.388905
upperneck 3.67607 -5.24076 -2.16065
head 2.52229 -2.67526 -1.00326
rclavicle 1.68346e-014 3.97569e-016
rhumerus -2.51322 6.80147 -31.5694
rradius 111.556
rwrist -67.7967
rhand 7.90882 -57.2878
rfingers 7.12502
rthumb 33.1403 -84.2583
lclavicle 1.68346e-014 3.97569e-016
lhumerus -48.7799 1.02254 86.2581
lradius 50.0067
lwrist -0.356068
lhand -8.10416 -23.8476
lfingers 7.12502
lthumb 17.8086 5.35697
rfemur 0 0 0
rtibia 0
rfoot 0 0
rtoes 0
lfemur -8.10444 -2.74761 -11.7536
ltibia 26.86
lfoot -19.7642 4.72575
ltoes -56.9337
364
root -0.514557 18.6642 6.01621 0.563316 5.87991 -2.34465
lowerback 13.8764 0.915278 3.66993
upperback -2.57207 2.03442 1.52353
thorax -10.5491 0.79914 -0.884062
lowerneck -8.2865 -4.01673 0.205784
upperneck 3.90727 -5.26441 -1.99193
head 2.62018 -2.68475 -0.925927
rclavicle 2.75068e-014 -4.37326e-015
rhumerus -3.02777 6.66811 -31.8376
rradius 111.181
rwrist -67.287
rhand 7.93468 -57.1508
rfingers 7.12502
rthumb 33.1649 -84.1161
lclavicle 2.75068e-014 -4.37326e-015
lhumerus -48.8559 1.1591 86.1676
lradius 50.1261
lwrist -0.425927
lhand -7.89087 -22.5483
lfingers 7.12502
lthumb 18.0138 6.63749
rfemur 0 0 0
rtibia 0
rfoot 0 0
rtoes 0
lfemur -8.00223 -2.8528 -11.7881
ltibia 26.8785
lfoot -19.768 4.61207
ltoes -56.9679
365
root -0.50804 18.6618 6.02452 0.488179 6.11696 -2.30353
lowerback 13.7134 0.934467 3.59825
upperback -2.60111 2.03706 1.49338
thorax -10.4867 0.804917 -0.873479
lowerneck -8.25586 -4.03344 -0.0263981
upperneck 4.04739 -5.27052 -1.81495
head 2.67278 -2.68553 -0.832044
rclavicle -2.1301e-014 -1.11319e-014
rhumerus -3.50225 6.59683 -32.1125
rradius 110.829
rwrist -66.8447
rhand 7.96229 -57.1146
rfingers 7.12502
rthumb 33.1912 -84.0743
lclavicle -2.1301e-014 -1.11319e-014
lhumerus -48.996 1.34501 86.0725
lradius 50.013
lwrist -0.664689
lhand -8.05339 -22.3475
lfingers 7.12502
lthumb 17.8575 6.85257
rfemur 0 0 0
rtibia 0
rfoot 0 0
rtoes 0
lfemur -7.94319 -2.97443 -11.8557
ltibia 26.8974
lfoot -19.7639 4.51107
ltoes -56.9969
